emandoz presents:

Lolita [Eng] [Ger] [emandoz 1-gig rip]



Lolita
Audio: English, German
Subs included
Source: PAL DVD

--------------------------------------------------------------------
Lolita (1962)

Video
ID                               : 1
Format                           : AVC
Format/Info                      : Advanced Video Codec
Format profile                   : Main@L3.0
Format settings, CABAC           : Yes
Format settings, ReFrames        : 1 frame
Muxing mode                      : Container profile=Unknown@3.0
Codec ID                         : V_MPEG4/ISO/AVC
Duration                         : 2h 27mn
Bit rate                         : 550 Kbps
Nominal bit rate                 : 561 Kbps
Width                            : 592 pixels
Height                           : 384 pixels
Display aspect ratio             : 1.661
Frame rate                       : 25.000 fps
Resolution                       : 24 bits
Colorimetry                      : 4:2:0
Scan type                        : Progressive
Bits/(Pixel*Frame)               : 0.097
Stream size                      : 579 MiB (58%)
Writing library                  : x264 core 65
Encoding settings                : cabac=1 / ref=1 / deblock=1:0:0 / analyse=0x1:0x111 / me=hex / subme=6 / psy_rd=1.0:0.0 / mixed_ref=0 / me_range=16 / chroma_me=1 / trellis=0 / 8x8dct=0 / cqm=0 / deadzone=21,11 / chroma_qp_offset=-2 / threads=3 / nr=0 / decimate=1 / mbaff=0 / bframes=0 / keyint=250 / keyint_min=25 / scenecut=40(pre) / rc=2pass / bitrate=561 / ratetol=1.0 / qcomp=0.60 / qpmin=10 / qpmax=51 / qpstep=4 / cplxblur=20.0 / qblur=0.5 / ip_ratio=1.40 / aq=1:1.00

Audio #1
ID                               : 2
Format                           : AC-3
Format/Info                      : Audio Coding 3
Codec ID                         : A_AC3
Duration                         : 2h 27mn
Bit rate mode                    : Constant
Bit rate                         : 192 Kbps
Channel(s)                       : 1 channel
Channel positions                : C
Sampling rate                    : 48.0 KHz
Stream size                      : 202 MiB (20%)
Language                         : English

Audio #2
ID                               : 3
Format                           : AC-3
Format/Info                      : Audio Coding 3
Codec ID                         : A_AC3
Duration                         : 2h 27mn
Bit rate mode                    : Constant
Bit rate                         : 192 Kbps
Channel(s)                       : 1 channel
Channel positions                : C
Sampling rate                    : 48.0 KHz
Stream size                      : 202 MiB (20%)
Language                         : German

Subs
German, English, Spanish, Dutch, Swedish, Norwegian, Danish, Finnish, Portugese, Hebrew, Polish, Greek, Czech, Turkish, Hungarian, Icelandic, Croatian, French, Italian, English for the hearing impaired, German for the hearing impaired
--------------------------------------------------------------------


Screenshots:
 
http://img32.imageshack.us/img32/8670/image001ofp.jpg 
http://img193.imageshack.us/img193/3121/image002dwq.jpg 
http://img32.imageshack.us/img32/3301/image003gkk.jpg 
http://img31.imageshack.us/img31/5540/image004ckj.jpg 
http://img12.imageshack.us/img12/2882/image005angjaz.jpg